<?xml version="1.0" standalone="no"?>
<!DOCTYPE svg PUBLIC "-//W3C//DTD SVG 20010904//EN"
 "http://www.w3.org/TR/2001/REC-SVG-20010904/DTD/svg10.dtd">
<svg version="1.0" xmlns="http://www.w3.org/2000/svg"
 width="300.000000pt" height="300.000000pt" viewBox="0 0 300.000000 300.000000"
 preserveAspectRatio="xMidYMid meet">
<metadata>
Created by potrace 1.11, written by Peter Selinger 2001-2013
</metadata>
<g transform="translate(0.000000,300.000000) scale(0.100000,-0.100000)"
fill="#000000" stroke="none">
<path d="M1368 2805 c-3 -4 -21 -8 -40 -10 -18 -2 -35 -4 -38 -6 -3 -1 -9 -3
-15 -4 -22 -4 -71 -17 -85 -22 -8 -4 -21 -5 -27 -4 -7 1 -13 -2 -13 -7 0 -6
-16 -13 -35 -16 -19 -4 -35 -11 -35 -17 0 -6 -4 -8 -9 -5 -4 3 -28 -4 -52 -16
-24 -12 -47 -21 -51 -20 -5 1 -8 -3 -8 -8 0 -5 -7 -10 -15 -10 -7 0 -18 -7
-23 -16 -5 -9 -13 -16 -18 -16 -19 -1 -40 -12 -52 -30 -7 -10 -18 -18 -24 -18
-16 0 -27 -10 -165 -148 -68 -67 -123 -128 -123 -136 0 -8 -8 -21 -17 -28 -18
-13 -29 -31 -80 -128 -15 -30 -31 -57 -36 -58 -4 -2 -5 -7 -2 -12 3 -4 -2 -21
-10 -36 -8 -16 -15 -37 -15 -46 0 -10 -4 -18 -9 -18 -6 0 -8 -9 -6 -20 2 -11
0 -20 -4 -20 -9 0 -22 -51 -21 -87 0 -13 -4 -23 -8 -23 -4 0 -9 -12 -10 -27
-6 -60 -5 -430 1 -458 19 -95 29 -132 38 -148 5 -10 7 -22 4 -27 -4 -6 -1 -10
4 -10 6 0 11 -8 11 -18 0 -10 7 -27 15 -39 9 -12 15 -26 14 -30 -2 -15 13 -53
22 -53 5 0 8 -3 7 -7 -2 -14 32 -83 42 -83 6 0 9 -3 8 -7 -3 -12 23 -57 38
-66 8 -4 14 -14 14 -22 0 -8 9 -20 20 -28 22 -15 32 -63 13 -60 -7 2 -10 -4
-6 -13 6 -15 -17 -16 -28 -1 -3 5 -9 1 -12 -8 -4 -10 -3 -14 4 -9 8 4 9 -1 4
-16 l-7 -23 23 22 c13 12 29 19 37 16 7 -2 10 0 7 5 -3 6 0 10 7 10 9 0 9 3
-2 10 -8 5 -10 10 -5 10 6 0 46 -36 90 -80 44 -44 84 -80 90 -80 6 0 16 -9 23
-20 7 -12 17 -18 22 -15 5 3 15 -4 23 -15 7 -11 30 -27 50 -35 20 -8 37 -20
37 -25 0 -6 7 -10 15 -10 8 0 15 -8 15 -17 0 -15 2 -16 10 -3 6 10 10 11 10 3
0 -7 9 -13 19 -13 11 0 26 -6 33 -13 7 -6 20 -13 28 -14 18 -2 83 -26 90 -33
6 -6 27 -11 64 -16 17 -2 32 -7 35 -12 7 -8 12 -9 74 -18 58 -9 409 -15 427
-7 8 3 26 7 40 9 31 3 120 23 140 31 8 4 17 7 20 8 65 19 90 30 90 38 0 5 9 7
20 4 11 -3 23 -1 26 5 7 10 55 32 67 30 4 -1 7 2 7 8 0 5 7 10 15 10 8 0 15 4
15 9 0 5 13 14 30 21 16 7 38 20 49 29 11 9 32 25 47 36 47 35 224 208 224
219 0 6 9 17 20 24 11 7 20 19 20 27 0 7 8 20 18 27 18 13 37 46 34 61 -1 4 3
7 8 7 9 0 26 32 28 53 1 4 8 15 17 23 8 9 15 22 15 30 0 8 5 14 11 14 6 0 9 7
6 15 -4 8 -2 17 3 20 7 5 29 66 34 95 1 3 4 10 7 15 4 6 10 28 14 50 10 46 12
54 15 58 13 16 26 467 12 467 -4 0 -9 12 -9 28 -3 37 -18 109 -30 142 -4 8 -5
21 -4 28 1 6 -3 12 -9 12 -7 0 -10 6 -7 13 2 6 -4 26 -13 42 -9 17 -16 41 -16
55 1 14 -5 32 -12 40 -7 8 -11 17 -10 20 2 3 -7 19 -20 37 -12 17 -22 34 -22
38 0 4 -15 22 -32 41 -18 18 -44 49 -58 69 -28 41 -185 200 -227 230 -15 11
-35 23 -45 27 -10 4 -18 12 -18 18 0 5 -15 17 -32 25 -18 9 -51 26 -73 40 -21
13 -43 21 -47 19 -4 -3 -8 -1 -8 5 0 8 -19 18 -50 26 -3 1 -18 8 -35 15 -16 7
-36 15 -42 17 -7 1 -19 5 -25 6 -7 2 -20 7 -28 10 -14 5 -56 16 -90 23 -8 2
-28 6 -45 10 -38 9 -419 17 -427 9z"/>
</g>
</svg>
