<?xml version="1.0" standalone="no"?>
<!DOCTYPE svg PUBLIC "-//W3C//DTD SVG 20010904//EN"
 "http://www.w3.org/TR/2001/REC-SVG-20010904/DTD/svg10.dtd">
<svg version="1.0" xmlns="http://www.w3.org/2000/svg"
 width="300.000000pt" height="300.000000pt" viewBox="0 0 300.000000 300.000000"
 preserveAspectRatio="xMidYMid meet">
<metadata>
Created by potrace 1.11, written by Peter Selinger 2001-2013
</metadata>
<g transform="translate(0.000000,300.000000) scale(0.100000,-0.100000)"
fill="#000000" stroke="none">
<path d="M1259 2958 c-22 -68 -17 -193 10 -250 13 -27 27 -48 32 -48 5 0 9 -5
9 -11 0 -32 171 -143 189 -123 15 17 29 93 29 159 0 86 -26 156 -80 216 -33
37 -112 88 -146 95 -26 5 -29 3 -43 -38z"/>
<path d="M1004 2958 c-11 -18 -12 -100 -1 -133 17 -49 68 -107 115 -127 24
-11 46 -17 50 -14 19 20 17 118 -4 163 -22 46 -28 53 -79 85 -54 33 -73 39
-81 26z"/>
<path d="M1767 2963 c-4 -6 -16 -9 -27 -6 -11 3 -20 0 -20 -6 0 -6 -9 -11 -20
-11 -29 0 -97 -73 -109 -117 -6 -21 -11 -57 -11 -80 0 -38 3 -43 22 -43 39 0
102 32 131 67 16 18 34 54 41 80 12 49 7 137 -7 116z"/>
<path d="M2028 2843 c-67 -70 -78 -139 -36 -235 l21 -49 25 17 c65 43 97 106
90 182 -5 53 -34 122 -52 122 -7 0 -28 -17 -48 -37z"/>
<path d="M763 2818 c-17 -100 10 -167 94 -226 45 -32 69 -29 77 9 23 116 -20
199 -127 244 l-37 15 -7 -42z"/>
<path d="M2291 2802 c-8 -2 -25 -14 -39 -26 -107 -90 -144 -180 -120 -291 8
-33 33 -99 45 -114 5 -7 88 52 115 83 16 17 34 43 40 59 7 15 15 27 18 27 3 0
6 8 7 18 0 9 3 37 6 62 3 29 -2 67 -14 106 -20 65 -35 85 -58 76z"/>
<path d="M1765 2703 c-109 -25 -176 -95 -187 -195 -1 -10 -6 -18 -11 -18 -5 0
-4 -6 2 -13 6 -8 8 -16 6 -19 -8 -8 112 4 123 12 2 3 7 4 40 15 12 4 22 11 22
16 0 5 6 9 13 9 20 1 66 75 81 132 7 29 12 55 10 59 -4 6 -73 8 -99 2z"/>
<path d="M1011 2651 c-12 -16 -21 -36 -21 -44 0 -9 -5 -19 -11 -22 -13 -9 -9
-97 5 -107 7 -5 7 -8 -2 -8 -14 0 33 -75 63 -100 13 -11 18 -10 35 7 47 52 62
135 35 200 -18 42 -62 103 -75 103 -5 0 -18 -13 -29 -29z"/>
<path d="M588 2609 c-17 -9 -13 -40 14 -114 14 -36 69 -114 82 -115 5 0 17 -6
25 -13 25 -21 137 -51 176 -48 59 5 60 5 57 41 -4 46 -47 138 -79 172 -28 29
-93 67 -128 74 -43 10 -132 11 -147 3z"/>
<path d="M1920 2497 c-6 -18 -16 -40 -21 -49 -5 -10 -6 -18 -1 -18 4 0 7 -20
6 -45 -2 -37 4 -55 33 -99 20 -30 46 -59 57 -65 12 -7 32 -18 46 -26 23 -13
25 -12 37 15 15 38 19 93 10 150 -9 51 -59 114 -119 148 l-36 20 -12 -31z"/>
<path d="M1525 2448 c15 -29 32 -61 37 -72 5 -10 12 -30 14 -45 3 -14 9 -30
14 -35 5 -5 6 -15 3 -22 -3 -8 -1 -14 4 -14 5 0 9 -8 10 -17 5 -49 13 -111 18
-133 6 -27 7 -188 1 -232 -4 -23 -17 -100 -21 -118 -9 -41 -38 -120 -45 -125
-17 -11 -131 59 -193 118 -33 31 -64 57 -68 57 -5 0 -9 4 -9 8 0 5 -8 17 -18
28 -10 11 -37 51 -60 89 -23 39 -46 76 -52 82 -6 7 -10 15 -9 18 0 3 -8 29
-19 58 -33 84 -35 91 -38 112 -3 17 -8 36 -19 78 -2 4 -3 12 -4 17 0 6 -5 10
-10 10 -5 0 -5 -17 0 -41 12 -51 6 -59 -24 -33 -53 48 -81 59 -147 58 -49 0
-74 -6 -103 -23 l-37 -23 31 -39 c17 -21 37 -39 45 -39 8 0 14 -5 14 -12 0 -6
3 -8 7 -5 3 4 12 2 19 -4 29 -24 116 -16 177 18 16 8 30 13 31 11 6 -6 48
-147 46 -154 -1 -4 2 -10 7 -13 4 -3 30 -50 57 -103 27 -54 54 -98 59 -98 6 0
8 -2 5 -5 -11 -11 139 -171 204 -218 67 -49 70 -55 49 -79 -11 -11 -27 -34
-35 -52 -9 -17 -16 -27 -16 -22 0 6 -13 -10 -28 -35 -30 -47 -107 -129 -120
-129 -4 0 -8 9 -9 19 -4 56 -99 265 -134 297 -11 9 -19 21 -19 26 0 10 -91
102 -133 135 -24 19 -27 25 -17 42 6 12 15 21 20 21 5 0 21 21 36 46 35 60 35
127 -2 195 -30 55 -42 59 -70 27 -71 -81 -80 -180 -22 -261 21 -29 18 -48 -4
-29 -30 24 -139 75 -188 87 -3 1 -18 7 -33 13 -16 7 -33 10 -38 6 -5 -3 -9 -1
-9 5 0 6 -7 8 -15 5 -20 -8 -19 10 1 30 8 9 12 16 8 16 -3 0 -2 6 4 13 36 44
49 213 19 243 -4 4 -7 14 -7 21 0 17 -10 30 -75 94 -27 27 -54 48 -60 46 -5
-2 -17 -17 -25 -33 -8 -16 -19 -32 -23 -35 -5 -3 -8 -9 -8 -13 1 -3 1 -7 0 -8
-4 -14 -10 -62 -11 -100 -2 -58 -11 -61 -26 -10 -15 48 -49 84 -107 112 -60
29 -70 19 -69 -63 1 -63 15 -97 56 -139 21 -21 88 -58 105 -58 11 0 31 72 25
93 -1 4 1 7 6 7 4 0 18 -22 30 -49 23 -48 104 -141 123 -141 5 0 9 -5 9 -10 0
-6 -12 -8 -27 -5 -55 11 -118 17 -112 11 3 -3 26 -9 50 -12 24 -3 50 -11 57
-16 6 -6 12 -8 12 -4 0 5 17 0 95 -30 11 -4 23 -6 28 -6 4 1 7 -3 7 -8 0 -6 5
-10 12 -10 40 0 268 -176 268 -207 0 -11 -16 -35 -23 -34 -4 0 -35 -13 -69
-28 -94 -42 -198 -63 -313 -62 -112 1 -157 5 -174 15 -6 4 -11 2 -11 -3 0 -6
1 -11 3 -11 1 0 39 -6 84 -14 78 -12 280 -14 332 -2 44 10 95 28 155 54 43 19
61 23 64 14 2 -7 9 -18 16 -25 11 -11 49 -85 51 -97 0 -3 3 -10 7 -15 13 -21
38 -136 44 -204 l7 -70 -52 -64 c-28 -36 -51 -70 -51 -76 0 -6 -4 -11 -9 -11
-9 0 -134 -242 -139 -270 -1 -8 -7 -24 -12 -35 -11 -25 -45 -145 -59 -210 -27
-125 -40 -242 -44 -398 l-2 -87 170 0 170 0 0 267 c0 148 4 293 8 323 13 87
76 265 100 281 5 3 9 9 8 12 0 9 26 67 42 92 6 11 29 47 49 80 47 75 57 89 88
130 14 18 32 43 40 55 27 41 66 77 123 114 32 20 59 36 61 36 2 0 30 12 62 27
33 15 64 28 69 29 6 1 35 9 65 18 114 33 242 45 444 40 164 -3 211 7 97 21
-30 4 -63 9 -75 11 -79 15 -366 24 -366 10 0 -4 -6 -6 -12 -3 -12 4 -81 -3
-154 -17 -17 -3 -62 -15 -99 -27 -37 -11 -69 -19 -71 -16 -2 2 10 48 26 103
17 54 31 114 32 132 1 29 9 39 59 72 31 22 64 46 72 55 9 8 18 15 22 15 3 0
23 17 45 38 37 38 39 38 70 26 18 -8 45 -15 61 -16 16 -1 29 -5 29 -8 0 -8
197 -4 228 4 12 3 30 8 40 10 27 6 103 38 99 42 -1 2 -30 -4 -62 -13 -59 -15
-183 -21 -237 -10 -58 12 -138 43 -138 54 0 6 11 25 25 41 14 17 25 35 25 41
0 6 4 11 9 11 7 0 81 137 87 160 0 3 6 18 13 34 15 37 21 87 9 80 -5 -3 -7
-11 -6 -17 3 -15 -94 -207 -104 -207 -4 0 -8 -5 -8 -10 0 -23 -140 -165 -211
-215 -50 -35 -118 -75 -128 -75 -3 0 -6 24 -5 52 0 29 -3 63 -7 76 -5 13 -5
22 1 22 6 0 6 9 0 25 -5 14 -11 40 -14 58 -8 62 -56 220 -78 261 -7 11 -13 23
-13 26 -1 5 -17 36 -59 118 -10 17 -22 32 -27 32 -6 0 2 -24 16 -52z"/>
<path d="M1309 2426 c-3 -3 -20 -8 -38 -11 -19 -3 -43 -11 -55 -17 -27 -14
-76 -69 -76 -85 0 -7 -5 -13 -11 -13 -5 0 -8 -4 -4 -9 3 -5 2 -12 -2 -14 -5
-3 -8 -22 -8 -44 0 -36 1 -38 34 -39 32 0 110 31 141 58 39 32 72 154 47 170
-14 9 -22 10 -28 4z"/>
<path d="M2285 2368 c-16 -6 -48 -28 -69 -48 l-39 -37 47 -28 c68 -40 145 -43
204 -9 55 33 85 62 76 75 -3 6 -30 22 -58 35 -54 25 -112 29 -161 12z"/>
<path d="M2653 2350 c-13 -5 -23 -7 -23 -3 0 3 -8 -1 -17 -10 -10 -8 -22 -17
-28 -18 -23 -7 -69 -78 -80 -124 -2 -5 -4 -17 -6 -25 -5 -21 97 -23 128 -3 13
9 23 13 23 9 0 -14 54 42 75 79 22 37 29 63 26 91 -1 13 -68 16 -98 4z"/>
<path d="M1752 2278 c-19 -74 -20 -85 -10 -102 6 -11 5 -16 -4 -16 -8 0 -9 -3
-3 -8 6 -4 11 -13 13 -20 5 -26 52 -90 79 -110 63 -44 72 -45 84 -15 25 66 27
132 4 187 -21 49 -105 125 -141 126 -6 0 -16 -19 -22 -42z"/>
<path d="M1360 2220 c-73 -25 -77 -31 -38 -73 51 -55 96 -76 159 -73 43 2 105
22 128 42 9 8 -45 67 -84 89 -55 33 -100 37 -165 15z"/>
<path d="M2218 2168 c-39 -10 -118 -72 -118 -92 0 -18 85 -58 134 -63 39 -4
81 9 131 40 21 13 54 48 55 58 0 10 -102 57 -135 62 -16 2 -46 0 -67 -5z"/>
<path d="M2650 2149 c0 -5 -7 -9 -15 -9 -40 0 -165 -112 -165 -147 0 -7 -5
-13 -12 -13 -8 0 -8 -4 2 -14 28 -25 106 -44 173 -41 90 4 156 41 214 119 24
32 43 62 43 66 0 7 -50 31 -80 38 -37 8 -160 9 -160 1z"/>
<path d="M193 2034 c-10 -6 -30 -18 -45 -28 l-28 -16 23 -26 c66 -78 168 -100
255 -56 40 21 55 42 30 42 -6 0 -8 3 -5 6 11 11 -62 71 -96 80 -47 11 -113 10
-134 -2z"/>
<path d="M1479 2010 c-65 -22 -114 -77 -129 -143 -17 -78 -16 -78 39 -73 28 3
63 12 80 21 36 18 82 65 75 77 -3 4 -1 8 4 8 5 0 9 6 10 13 0 6 3 23 6 37 13
66 12 75 -11 76 -12 1 -45 -7 -74 -16z"/>
<path d="M2430 1893 c0 -5 -12 -9 -27 -8 -21 0 -29 -5 -31 -21 -6 -42 72 -144
116 -151 8 -1 18 -6 21 -11 3 -5 32 -10 64 -10 46 0 60 4 68 19 7 14 6 19 -2
19 -7 0 -10 3 -6 6 10 10 -28 77 -61 106 -17 14 -33 24 -36 21 -3 -4 -6 -2 -6
4 0 10 -4 11 -51 16 -14 2 -30 7 -37 11 -7 4 -12 3 -12 -1z"/>
<path d="M2665 1884 c-13 -7 -26 -10 -28 -8 -3 3 -7 -2 -11 -11 -8 -22 60 -94
109 -115 22 -10 58 -17 80 -16 54 3 115 24 115 41 0 23 -73 93 -114 110 -42
18 -116 17 -151 -1z"/>
<path d="M1998 1863 c-6 -16 -12 -53 -13 -83 -3 -74 24 -121 103 -178 l33 -23
15 36 c23 56 16 139 -16 186 -23 34 -87 89 -105 89 -3 0 -11 -12 -17 -27z"/>
<path d="M2219 1862 c-17 -3 -32 -36 -21 -47 3 -3 7 -19 8 -34 4 -55 74 -137
127 -148 15 -3 29 -9 32 -13 2 -4 16 -5 30 -2 24 4 25 7 21 56 -2 29 -13 68
-23 87 -29 51 -131 110 -174 101z"/>
<path d="M336 1812 c-3 -9 -6 -38 -7 -63 -3 -80 45 -150 130 -191 33 -15 37
-15 45 0 5 9 11 37 12 62 5 88 -58 175 -144 199 -25 8 -32 6 -36 -7z"/>
<path d="M602 1816 c0 -6 -3 -30 -6 -54 -5 -48 14 -114 43 -148 9 -12 43 -36
74 -54 l56 -31 6 23 c28 110 -22 213 -123 255 -31 13 -49 17 -50 9z"/>
<path d="M27 1762 c-35 -4 -35 -26 -2 -88 26 -49 41 -64 89 -90 33 -18 143
-27 152 -12 9 14 -15 84 -38 107 -10 11 -18 24 -18 29 0 23 -126 61 -183 54z"/>
<path d="M2768 1595 c-1 -1 -23 -5 -48 -8 -53 -6 -112 -26 -122 -41 -4 -6 -8
-8 -8 -4 0 5 -12 -2 -26 -15 l-26 -22 52 -47 c74 -66 132 -91 210 -88 32 1 67
5 80 10 3 1 8 2 13 1 4 0 7 4 7 9 0 5 3 9 8 8 10 -3 66 28 80 44 12 15 -5 38
-59 83 -36 30 -150 80 -161 70z"/>
<path d="M355 1540 c-3 -5 -1 -10 4 -10 6 0 11 5 11 10 0 6 -2 10 -4 10 -3 0
-8 -4 -11 -10z"/>
<path d="M390 1534 c0 -2 9 -8 20 -14 11 -6 20 -7 20 -2 0 6 -9 12 -20 15 -11
3 -20 3 -20 1z"/>
<path d="M310 1491 c-110 -34 -208 -134 -223 -228 -1 -10 -5 -22 -7 -28 -5 -9
-5 -70 -1 -118 0 -12 5 -15 13 -11 7 4 24 9 38 10 50 5 65 9 72 19 4 6 11 10
15 10 37 0 143 105 143 142 0 7 4 13 10 13 5 0 7 7 4 15 -4 8 -2 15 3 15 6 0
11 23 12 51 1 27 2 53 2 57 1 4 1 19 0 35 -1 23 -5 27 -28 26 -16 0 -39 -4
-53 -8z"/>
<path d="M899 1467 c-33 -26 -69 -112 -60 -142 2 -5 3 -20 3 -32 0 -13 5 -23
10 -23 5 0 7 -4 4 -9 -4 -5 13 -33 35 -62 40 -49 43 -51 56 -33 7 10 20 27 28
37 8 9 11 17 7 17 -4 0 -1 4 6 9 13 8 19 96 10 131 -8 29 -36 75 -60 97 -20
19 -27 21 -39 10z"/>
<path d="M497 1443 c-53 -41 -81 -109 -74 -176 5 -56 37 -132 44 -109 3 6 10
12 17 12 20 0 77 65 90 105 8 21 12 56 11 78 -3 40 -32 117 -45 117 -4 0 -23
-12 -43 -27z"/>
<path d="M2076 1435 c-44 -92 -28 -186 44 -257 26 -27 54 -48 62 -48 21 0 50
80 51 138 0 27 -8 62 -18 82 -17 34 -100 120 -115 120 -4 0 -15 -16 -24 -35z"/>
<path d="M2279 1433 c-30 -90 -14 -165 49 -225 67 -64 83 -55 101 59 7 44 4
59 -16 101 -22 46 -82 102 -110 102 -6 0 -17 -17 -24 -37z"/>
<path d="M780 1451 c0 -6 -3 -10 -7 -9 -32 9 -111 -50 -139 -104 -16 -30 -25
-122 -15 -150 6 -18 10 -17 96 24 25 11 73 78 79 109 3 13 5 26 6 29 2 3 2 8
1 13 -1 4 -2 26 -3 48 -1 22 -5 42 -10 45 -4 3 -8 0 -8 -5z"/>
<path d="M2483 1424 c4 -4 2 -13 -4 -21 -6 -7 -8 -13 -3 -13 5 0 10 -15 11
-34 3 -72 54 -135 128 -161 87 -30 84 -31 81 33 -5 110 -75 184 -186 198 -18
3 -31 2 -27 -2z"/>
<path d="M1744 1379 c-3 -5 -3 -23 1 -41 3 -18 7 -46 10 -62 6 -40 41 -105 77
-143 37 -39 112 -72 180 -80 l50 -6 -7 67 c-11 115 -55 187 -139 232 -25 14
-48 24 -51 24 -3 0 -6 0 -7 1 -46 14 -107 18 -114 8z"/>
</g>
</svg>
